<svg width="48" height="48" viewBox="0 0 48 48" fill="none" xmlns="http://www.w3.org/2000/svg">
  <rect width="48" height="48" rx="12" fill="#E3F2FD"/>
  <path d="M32 20C34.2091 20 36 18.2091 36 16C36 13.7909 34.2091 12 32 12C29.7909 12 28 13.7909 28 16C28 18.2091 29.7909 20 32 20Z" fill="#4A90E2"/>
  <path d="M16 28C18.2091 28 20 26.2091 20 24C20 21.7909 18.2091 20 16 20C13.7909 20 12 21.7909 12 24C12 26.2091 13.7909 28 16 28Z" fill="#4A90E2"/>
  <path d="M32 36C34.2091 36 36 34.2091 36 32C36 29.7909 34.2091 28 32 28C29.7909 28 28 29.7909 28 32C28 34.2091 29.7909 36 32 36Z" fill="#4A90E2"/>
  <path d="M19.5 22.5L28.5 17.5M19.5 25.5L28.5 30.5" stroke="#4A90E2" stroke-width="2"/>
</svg> 